<svg width="392" height="586" viewBox="0 0 392 586" fill="none" xmlns="http://www.w3.org/2000/svg">
<path fill-rule="evenodd" clip-rule="evenodd" d="M161.432 5.32642C75.2752 5.32642 5.43164 75.17 5.43164 161.326V425.326C5.43164 511.483 75.2752 581.326 161.432 581.326H231.432C317.588 581.326 387.432 511.483 387.432 425.326V161.326C387.432 75.17 317.588 5.32642 231.432 5.32642H161.432ZM191.547 66.0129C116.437 66.0129 55.5474 126.902 55.5474 202.013V383.64C55.5474 458.751 116.437 519.64 191.547 519.64H202.317C277.427 519.64 338.317 458.751 338.317 383.64V202.013C338.317 126.902 277.428 66.0129 202.317 66.0129H191.547Z" fill="#00FFA3"/>
<path d="M9.92664 161.326C9.92664 77.6525 77.7577 9.82142 161.432 9.82142V0.831416C72.7927 0.831416 0.936641 72.6875 0.936641 161.326H9.92664ZM9.92664 425.326V161.326H0.936641V425.326H9.92664ZM161.432 576.831C77.7578 576.831 9.92664 509 9.92664 425.326H0.936641C0.936641 513.965 72.7927 585.821 161.432 585.821V576.831ZM231.432 576.831H161.432V585.821H231.432V576.831ZM382.937 425.326C382.937 509 315.106 576.831 231.432 576.831V585.821C320.071 585.821 391.927 513.965 391.927 425.326H382.937ZM382.937 161.326V425.326H391.927V161.326H382.937ZM231.432 9.82142C315.106 9.82142 382.937 77.6525 382.937 161.326H391.927C391.927 72.6875 320.071 0.831416 231.432 0.831416V9.82142ZM161.432 9.82142H231.432V0.831416H161.432V9.82142ZM60.0424 202.013C60.0424 129.385 118.919 70.5079 191.547 70.5079V61.5179C113.954 61.5179 51.0524 124.42 51.0524 202.013H60.0424ZM60.0424 383.64V202.013H51.0524V383.64H60.0424ZM191.547 515.145C118.919 515.145 60.0424 456.268 60.0424 383.64H51.0524C51.0524 461.233 113.954 524.135 191.547 524.135V515.145ZM202.317 515.145H191.547V524.135H202.317V515.145ZM333.822 383.64C333.822 456.268 274.945 515.145 202.317 515.145V524.135C279.91 524.135 342.812 461.233 342.812 383.64H333.822ZM333.822 202.013V383.64H342.812V202.013H333.822ZM202.317 70.5079C274.945 70.5079 333.822 129.385 333.822 202.013H342.812C342.812 124.42 279.91 61.5179 202.317 61.5179V70.5079ZM191.547 70.5079H202.317V61.5179H191.547V70.5079Z" fill="black"/>
</svg>
